<svg xmlns="http://www.w3.org/2000/svg" viewBox="0 0 1200 700"><defs><linearGradient id="p" x1="0" y1="0" x2="1" y2="1"><stop stop-color="#123e3c"/><stop offset=".55" stop-color="#159a5b"/><stop offset="1" stop-color="#8bdc72"/></linearGradient></defs><rect width="1200" height="700" fill="url(#p)"/><g opacity=".12" stroke="#fff" stroke-width="2"><circle cx="950" cy="160" r="190"/><circle cx="950" cy="160" r="130"/><circle cx="950" cy="160" r="70"/></g><rect x="110" y="105" width="980" height="500" rx="34" fill="#092b2b" opacity=".84"/><rect x="165" y="155" width="500" height="350" rx="22" fill="#f4fffb"/><rect x="205" y="200" width="420" height="18" rx="9" fill="#b9d8d0"/><rect x="205" y="245" width="300" height="14" rx="7" fill="#d5e8e2"/><rect x="205" y="300" width="100" height="100" rx="18" fill="#c8f2df"/><path d="M235 350l22 22 43-53" fill="none" stroke="#159a5b" stroke-width="12" stroke-linecap="round" stroke-linejoin="round"/><rect x="345" y="310" width="260" height="16" rx="8" fill="#b8d8cf"/><rect x="345" y="345" width="210" height="13" rx="6" fill="#d6e8e2"/><rect x="345" y="375" width="175" height="13" rx="6" fill="#e2efeb"/><g fill="#70e6bb"><circle cx="820" cy="255" r="22"/><circle cx="900" cy="330" r="22"/><circle cx="820" cy="405" r="22"/></g><path d="M820 255l80 75-80 75" fill="none" stroke="#70e6bb" stroke-width="8"/><text x="165" y="560" fill="#fff" font-family="Arial,sans-serif" font-size="42" font-weight="700">DEEP LEARNING</text><text x="165" y="592" fill="#b9dfd4" font-family="Arial,sans-serif" font-size="20">Focus • Practice • Progress</text></svg>
